HIERARCHY
ROOT hip
{
	OFFSET 0.000000 0.000000 0.000000 
	CHANNELS 6 Xposition Yposition Zposition Xrotation Zrotation Yrotation
	JOINT abdomen
	{
		OFFSET 0.000000 3.402643 0.000000 
		CHANNELS 3 Xrotation Zrotation Yrotation
		JOINT chest
		{
			OFFSET 0.000000 8.438565 -0.680529 
			CHANNELS 3 Xrotation Zrotation Yrotation
			JOINT neck
			{
				OFFSET 0.000000 10.207942 -0.272212 
				CHANNELS 3 Xrotation Zrotation Yrotation
				JOINT head
				{
					OFFSET 0.000000 3.130431 0.000000 
					CHANNELS 3 Xrotation Zrotation Yrotation
					End Site
					{
						OFFSET 0.000000 3.130435 0.000000 
					}
				}
			}
			JOINT lCollar
			{
				OFFSET 3.470700 6.669187 -0.816635 
				CHANNELS 3 Yrotation Zrotation Xrotation
				JOINT lShldr
				{
					OFFSET 3.198488 0.000000 0.000000 
					CHANNELS 3 Zrotation Yrotation Xrotation
					JOINT lForeArm
					{
						OFFSET 10.139888 0.000000 0.000000 
						CHANNELS 3 Yrotation Zrotation Xrotation
						JOINT lHand
						{
							OFFSET 8.370511 0.000000 0.000000 
							CHANNELS 3 Zrotation Yrotation Xrotation
							End Site
							{
								OFFSET 4.083176 0.000000 0.000000 
							}
						}
					}
				}
			}
			JOINT rCollar
			{
				OFFSET -3.470700 6.669187 -0.816635 
				CHANNELS 3 Yrotation Zrotation Xrotation
				JOINT rShldr
				{
					OFFSET -3.198488 0.000000 0.000000 
					CHANNELS 3 Zrotation Yrotation Xrotation
					JOINT rForeArm
					{
						OFFSET -10.139888 0.000000 0.000000 
						CHANNELS 3 Yrotation Zrotation Xrotation
						JOINT rHand
						{
							OFFSET -8.370511 0.000000 0.000000 
							CHANNELS 3 Zrotation Yrotation Xrotation
							End Site
							{
								OFFSET -4.083176 0.000000 0.000000 
							}
						}
					}
				}
			}
		}
	}
	JOINT lThigh
	{
		OFFSET 5.308129 -1.633274 1.361059 
		CHANNELS 3 Xrotation Zrotation Yrotation
		JOINT lShin
		{
			OFFSET -2.041588 -20.007561 0.000000 
			CHANNELS 3 Xrotation Zrotation Yrotation
			JOINT lFoot
			{
				OFFSET 0.000000 -19.190928 -1.224953 
				CHANNELS 3 Xrotation Yrotation Zrotation
				End Site
				{
					OFFSET 0.000000 -2.449906 4.627600 
				}
			}
		}
	}
	JOINT rThigh
	{
		OFFSET -5.308129 -1.633274 1.361059 
		CHANNELS 3 Xrotation Zrotation Yrotation
		JOINT rShin
		{
			OFFSET 2.041588 -20.007561 0.000000 
			CHANNELS 3 Xrotation Zrotation Yrotation
			JOINT rFoot
			{
				OFFSET 0.000000 -19.190928 -1.224953 
				CHANNELS 3 Xrotation Yrotation Zrotation
				End Site
				{
					OFFSET 0.000000 -2.449906 4.627600 
				}
			}
		}
	}
}
MOTION
Frames: 6
Frame Time: 0.033333
-0.580594 50.717819 1.216751 -0.049001 0.126953 -0.078125 0.000000 0.000000 0.000000 -6.510942 0.740082 -4.316677 1.606769 -0.664042 -0.449302 8.554629 0.048828 -0.068359 -3.521967 9.154817 6.304141 -33.376232 12.148602 -45.115528 -18.632458 7.805155 40.437145 -3.872842 7.041206 -8.014420 3.089181 -14.089146 8.026228 33.562622 -1.608535 -37.544445 13.133299 -9.327521 68.309082 -1.084593 -9.110312 -8.677800 1.901412 6.605569 11.211788 8.436605 -0.177229 -11.299220 -5.661290 0.277403 -1.784127 0.437092 -8.126521 -15.264429 8.751563 1.353433 -0.504653 -4.324624 0.056409 -1.650336 
-0.629182 50.712620 1.219068 -0.019565 0.048828 -0.039063 0.000000 0.000000 0.000000 -6.464151 0.652524 -4.218922 1.665090 -0.556619 -0.507884 8.652464 -0.234375 -0.029337 -3.521967 9.154817 6.304141 -33.183956 11.870025 -45.049702 -18.645737 7.807314 40.497822 -4.036247 7.029748 -8.006253 3.089181 -14.089146 8.026228 33.806614 -1.183251 -37.257454 13.146629 -9.307338 67.890533 -1.323416 -9.188466 -8.696601 1.871560 6.758994 11.363187 8.473033 -0.204877 -11.380198 -5.658127 0.260899 -1.844515 0.408591 -7.993823 -15.185257 8.772154 1.374714 -0.619474 -4.297664 0.063053 -1.615604 
-0.676163 50.714035 1.219630 0.019531 0.029297 0.000000 0.000000 0.000000 0.000000 -6.247432 0.506499 -4.121191 1.381647 -0.585919 -0.459060 8.740191 -0.253906 0.009766 -3.521967 9.154817 6.304141 -33.209217 11.534656 -45.698837 -18.944080 8.080314 41.234364 -5.226290 7.016407 -7.938421 3.089181 -14.089146 8.026228 34.097450 -0.842489 -37.088150 13.173702 -9.314352 67.690147 -1.504477 -9.217241 -8.695839 1.922529 6.834029 11.457898 8.247040 -0.263784 -11.423372 -5.490641 0.253313 -1.857802 0.350282 -7.906342 -15.129044 8.787487 1.335066 -0.601664 -4.160703 0.043418 -1.559667 
-0.717548 50.718773 1.213189 0.000015 0.009766 0.087892 0.000000 0.000000 0.000000 -5.941548 0.331193 -4.072310 1.078715 -0.712876 -0.361422 8.847613 -0.126953 0.019531 -3.521967 9.154817 6.304141 -33.180733 11.161155 -46.151192 -19.146496 8.277252 41.868160 -5.286807 6.890777 -7.927106 3.089181 -14.089146 8.026228 34.413342 -0.508893 -36.821827 13.230090 -9.313505 67.561745 -1.785367 -9.401441 -8.711738 2.009087 6.888142 11.481976 8.069721 -0.273875 -11.465834 -5.464397 0.296452 -1.849599 0.359837 -7.778461 -15.021119 8.770288 1.245848 -0.861273 -4.213114 0.043337 -1.496405 
-0.742760 50.723022 1.201502 0.038948 -0.029297 0.224609 0.000000 0.000000 0.000000 -5.791135 0.272730 -4.121140 0.951454 -0.664049 -0.361417 8.925531 -0.244141 0.058593 -3.521967 9.154817 6.304141 -33.069874 10.901108 -45.914680 -19.127460 8.255845 41.926464 -4.558775 6.688282 -7.936169 3.089181 -14.089146 8.026228 34.552959 -0.199500 -36.837681 13.278284 -9.359389 67.627213 -1.321187 -9.148193 -8.688813 1.931769 6.949675 11.487613 8.020627 -0.254343 -11.472753 -5.451328 0.256467 -1.866912 0.311068 -7.689716 -14.984721 8.808617 1.226215 -1.026402 -4.292759 0.055837 -1.502087 
-0.761024 50.716877 1.189865 0.107176 -0.039062 0.361328 0.000000 0.000000 0.000000 -5.715578 0.301918 -4.209028 0.912198 -0.585924 -0.390704 8.886239 -0.351562 0.078124 -3.521967 9.154817 6.304141 -33.133915 10.601652 -45.827988 -19.191790 8.288651 42.070442 -4.784252 6.836062 -7.945018 3.089181 -14.089146 8.026228 34.461544 0.048286 -36.750748 13.232360 -9.288981 68.112228 -1.088327 -9.140905 -8.686177 1.825889 6.991924 11.530965 8.017399 -0.264758 -11.570616 -5.471017 0.248113 -1.849345 0.164385 -7.678773 -14.973406 9.036277 1.226771 -1.044520 -4.475524 0.045057 -1.560500 
